{
	"patcher" : 	{
		"fileversion" : 1,
		"appversion" : 		{
			"major" : 8,
			"minor" : 6,
			"revision" : 1,
			"architecture" : "x64",
			"modernui" : 1
		}
,
		"classnamespace" : "box",
		"rect" : [ 530.0, 192.0, 877.0, 781.0 ],
		"bglocked" : 0,
		"openinpresentation" : 0,
		"default_fontsize" : 12.0,
		"default_fontface" : 0,
		"default_fontname" : "Arial",
		"gridonopen" : 1,
		"gridsize" : [ 15.0, 15.0 ],
		"gridsnaponopen" : 1,
		"objectsnaponopen" : 1,
		"statusbarvisible" : 2,
		"toolbarvisible" : 1,
		"lefttoolbarpinned" : 0,
		"toptoolbarpinned" : 0,
		"righttoolbarpinned" : 0,
		"bottomtoolbarpinned" : 0,
		"toolbars_unpinned_last_save" : 0,
		"tallnewobj" : 0,
		"boxanimatetime" : 200,
		"enablehscroll" : 1,
		"enablevscroll" : 1,
		"devicewidth" : 0.0,
		"description" : "",
		"digest" : "",
		"tags" : "",
		"style" : "",
		"subpatcher_template" : "",
		"assistshowspatchername" : 0,
		"boxes" : [ 			{
				"box" : 				{
					"comment" : "line output",
					"id" : "obj-509",
					"index" : 0,
					"maxclass" : "outlet",
					"numinlets" : 1,
					"numoutlets" : 0,
					"patching_rect" : [ 72.429090142250061, 516.0, 30.0, 30.0 ]
				}

			}
, 			{
				"box" : 				{
					"comment" : "initial line message",
					"id" : "obj-510",
					"index" : 0,
					"maxclass" : "inlet",
					"numinlets" : 0,
					"numoutlets" : 1,
					"outlettype" : [ "" ],
					"patching_rect" : [ 0.0, 89.0, 30.0, 30.0 ]
				}

			}
, 			{
				"box" : 				{
					"fontsize" : 12.881266390983269,
					"id" : "obj-511",
					"linecount" : 2,
					"maxclass" : "comment",
					"numinlets" : 1,
					"numoutlets" : 0,
					"patching_rect" : [ 299.449301362037659, 0.0, 157.894736766815186, 35.0 ],
					"text" : "INFINITE LINE GENERATOR :D"
				}

			}
, 			{
				"box" : 				{
					"fontsize" : 19.815105078094646,
					"id" : "obj-512",
					"maxclass" : "newobj",
					"numinlets" : 1,
					"numoutlets" : 1,
					"outlettype" : [ "int" ],
					"patching_rect" : [ 205.0, 410.429423775673058, 31.894736766815186, 31.0 ],
					"text" : "t 0"
				}

			}
, 			{
				"box" : 				{
					"fontsize" : 13.276120181892674,
					"id" : "obj-517",
					"maxclass" : "newobj",
					"numinlets" : 1,
					"numoutlets" : 1,
					"outlettype" : [ "" ],
					"patching_rect" : [ 563.027658939361572, 433.275292016913681, 166.894736766815186, 23.0 ],
					"text" : "expr random(5000\\, 10000)"
				}

			}
, 			{
				"box" : 				{
					"id" : "obj-518",
					"maxclass" : "gswitch2",
					"numinlets" : 2,
					"numoutlets" : 2,
					"outlettype" : [ "", "" ],
					"parameter_enable" : 0,
					"patching_rect" : [ 234.974398732185364, 359.005078007257907, 46.894736766815186, 38.477732731745618 ]
				}

			}
, 			{
				"box" : 				{
					"id" : "obj-519",
					"maxclass" : "button",
					"numinlets" : 1,
					"numoutlets" : 1,
					"outlettype" : [ "bang" ],
					"parameter_enable" : 0,
					"patching_rect" : [ 362.449301362037659, 262.93229220793819, 31.894736766815186, 31.894736766815186 ]
				}

			}
, 			{
				"box" : 				{
					"fontsize" : 13.275568079305248,
					"id" : "obj-520",
					"maxclass" : "message",
					"numinlets" : 2,
					"numoutlets" : 1,
					"outlettype" : [ "" ],
					"patching_rect" : [ 487.670497417449951, 589.182043357877319, 107.605715751647949, 23.0 ],
					"text" : "69. 0. 76. 6213."
				}

			}
, 			{
				"box" : 				{
					"fontsize" : 15.12427333762038,
					"id" : "obj-521",
					"maxclass" : "newobj",
					"numinlets" : 1,
					"numoutlets" : 4,
					"outlettype" : [ "bang", "int", "bang", "bang" ],
					"patching_rect" : [ 254.894736766815186, 262.93229220793819, 63.894736766815186, 25.0 ],
					"text" : "t b 1 b b"
				}

			}
, 			{
				"box" : 				{
					"fontsize" : 15.691475250891271,
					"format" : 6,
					"id" : "obj-522",
					"maxclass" : "flonum",
					"numinlets" : 1,
					"numoutlets" : 2,
					"outlettype" : [ "", "bang" ],
					"parameter_enable" : 0,
					"patching_rect" : [ 179.0, 310.796123299598548, 57.894736766815186, 26.0 ]
				}

			}
, 			{
				"box" : 				{
					"fontsize" : 13.176858892749502,
					"id" : "obj-523",
					"maxclass" : "newobj",
					"numinlets" : 1,
					"numoutlets" : 1,
					"outlettype" : [ "" ],
					"patching_rect" : [ 407.0, 433.275292016913681, 128.0, 23.0 ],
					"text" : "expr random(0\\, 127)"
				}

			}
, 			{
				"box" : 				{
					"fontsize" : 12.628860914234236,
					"id" : "obj-525",
					"maxclass" : "newobj",
					"numinlets" : 4,
					"numoutlets" : 1,
					"outlettype" : [ "" ],
					"patching_rect" : [ 303.277447462081909, 499.978640812544654, 278.750211477279663, 23.0 ],
					"text" : "pack f f f f"
				}

			}
, 			{
				"box" : 				{
					"fontsize" : 15.173346090852988,
					"id" : "obj-527",
					"maxclass" : "newobj",
					"numinlets" : 1,
					"numoutlets" : 1,
					"outlettype" : [ "" ],
					"patching_rect" : [ 262.869135499000549, 461.75202375343315, 72.894736766815186, 25.0 ],
					"text" : "append 0"
				}

			}
, 			{
				"box" : 				{
					"fontsize" : 18.1454121539353,
					"id" : "obj-528",
					"maxclass" : "message",
					"numinlets" : 2,
					"numoutlets" : 1,
					"outlettype" : [ "" ],
					"patching_rect" : [ 262.869135499000549, 420.582060125884254, 37.394736766815186, 29.0 ],
					"text" : "$1"
				}

			}
, 			{
				"box" : 				{
					"fontsize" : 14.578348378397045,
					"id" : "obj-529",
					"maxclass" : "message",
					"numinlets" : 2,
					"numoutlets" : 1,
					"outlettype" : [ "" ],
					"patching_rect" : [ 0.0, 143.604648954325057, 94.0, 25.0 ],
					"text" : "0 0 127 6000"
				}

			}
, 			{
				"box" : 				{
					"fontsize" : 16.199034765989918,
					"id" : "obj-530",
					"maxclass" : "newobj",
					"numinlets" : 3,
					"numoutlets" : 2,
					"outlettype" : [ "", "bang" ],
					"patching_rect" : [ 179.0, 194.472373595237514, 94.894736766815186, 27.0 ],
					"text" : "line"
				}

			}
 ],
		"lines" : [ 			{
				"patchline" : 				{
					"destination" : [ "obj-529", 0 ],
					"source" : [ "obj-510", 0 ]
				}

			}
, 			{
				"patchline" : 				{
					"destination" : [ "obj-518", 0 ],
					"source" : [ "obj-512", 0 ]
				}

			}
, 			{
				"patchline" : 				{
					"destination" : [ "obj-525", 3 ],
					"source" : [ "obj-517", 0 ]
				}

			}
, 			{
				"patchline" : 				{
					"destination" : [ "obj-512", 0 ],
					"order" : 1,
					"source" : [ "obj-518", 1 ]
				}

			}
, 			{
				"patchline" : 				{
					"destination" : [ "obj-528", 0 ],
					"order" : 0,
					"source" : [ "obj-518", 1 ]
				}

			}
, 			{
				"patchline" : 				{
					"destination" : [ "obj-530", 0 ],
					"source" : [ "obj-520", 0 ]
				}

			}
, 			{
				"patchline" : 				{
					"destination" : [ "obj-517", 0 ],
					"source" : [ "obj-521", 3 ]
				}

			}
, 			{
				"patchline" : 				{
					"destination" : [ "obj-518", 0 ],
					"source" : [ "obj-521", 1 ]
				}

			}
, 			{
				"patchline" : 				{
					"destination" : [ "obj-522", 0 ],
					"source" : [ "obj-521", 0 ]
				}

			}
, 			{
				"patchline" : 				{
					"destination" : [ "obj-523", 0 ],
					"source" : [ "obj-521", 2 ]
				}

			}
, 			{
				"patchline" : 				{
					"destination" : [ "obj-509", 0 ],
					"order" : 1,
					"source" : [ "obj-522", 0 ]
				}

			}
, 			{
				"patchline" : 				{
					"destination" : [ "obj-518", 1 ],
					"order" : 0,
					"source" : [ "obj-522", 0 ]
				}

			}
, 			{
				"patchline" : 				{
					"destination" : [ "obj-525", 2 ],
					"source" : [ "obj-523", 0 ]
				}

			}
, 			{
				"patchline" : 				{
					"destination" : [ "obj-520", 1 ],
					"order" : 0,
					"source" : [ "obj-525", 0 ]
				}

			}
, 			{
				"patchline" : 				{
					"destination" : [ "obj-520", 0 ],
					"order" : 1,
					"source" : [ "obj-525", 0 ]
				}

			}
, 			{
				"patchline" : 				{
					"destination" : [ "obj-525", 0 ],
					"source" : [ "obj-527", 0 ]
				}

			}
, 			{
				"patchline" : 				{
					"destination" : [ "obj-527", 0 ],
					"source" : [ "obj-528", 0 ]
				}

			}
, 			{
				"patchline" : 				{
					"destination" : [ "obj-530", 0 ],
					"source" : [ "obj-529", 0 ]
				}

			}
, 			{
				"patchline" : 				{
					"destination" : [ "obj-519", 0 ],
					"order" : 0,
					"source" : [ "obj-530", 1 ]
				}

			}
, 			{
				"patchline" : 				{
					"destination" : [ "obj-521", 0 ],
					"order" : 1,
					"source" : [ "obj-530", 1 ]
				}

			}
, 			{
				"patchline" : 				{
					"destination" : [ "obj-522", 0 ],
					"source" : [ "obj-530", 0 ]
				}

			}
 ],
		"dependency_cache" : [  ],
		"autosave" : 0
	}

}
